<?xml version="1.0" encoding="UTF-8" standalone="no"?>
<!-- Created with Inkscape (http://www.inkscape.org/) -->

<svg
   xmlns:dc="http://purl.org/dc/elements/1.1/"
   xmlns:cc="http://creativecommons.org/ns#"
   xmlns:rdf="http://www.w3.org/1999/02/22-rdf-syntax-ns#"
   xmlns:svg="http://www.w3.org/2000/svg"
   xmlns="http://www.w3.org/2000/svg"
   xmlns:sodipodi="http://sodipodi.sourceforge.net/DTD/sodipodi-0.dtd"
   xmlns:inkscape="http://www.inkscape.org/namespaces/inkscape"
   width="345.17297"
   height="344.85632"
   id="svg3108"
   version="1.1"
   inkscape:version="0.48.4 r9939"
   sodipodi:docname="New document 2">
  <defs
     id="defs3110" />
  <sodipodi:namedview
     id="base"
     pagecolor="#ffffff"
     bordercolor="#666666"
     borderopacity="1.0"
     inkscape:pageopacity="0.0"
     inkscape:pageshadow="2"
     inkscape:zoom="0.35"
     inkscape:cx="176.15791"
     inkscape:cy="129.57102"
     inkscape:document-units="px"
     inkscape:current-layer="layer1"
     showgrid="false"
     fit-margin-top="0"
     fit-margin-left="0"
     fit-margin-right="0"
     fit-margin-bottom="0"
     inkscape:window-width="850"
     inkscape:window-height="651"
     inkscape:window-x="417"
     inkscape:window-y="155"
     inkscape:window-maximized="0" />
  <metadata
     id="metadata3113">
    <rdf:RDF>
      <cc:Work
         rdf:about="">
        <dc:format>image/svg+xml</dc:format>
        <dc:type
           rdf:resource="http://purl.org/dc/dcmitype/StillImage" />
        <dc:title></dc:title>
      </cc:Work>
    </rdf:RDF>
  </metadata>
  <g
     inkscape:label="Layer 1"
     inkscape:groupmode="layer"
     id="layer1"
     transform="translate(-198.84209,-317.07688)">
    <path
       clip-rule="evenodd"
       d="m 371.95175,317.08683 c 93.55501,-0.482 172.43401,76.408 172.06201,173.36601 -0.363,94.847 -78.165,171.854 -173.12301,171.479 -95.518,-0.378 -172.81099,-78.198 -172.04299,-173.507 0.781,-96.93701 80.14899,-172.34401 173.10399,-171.33801 z m 162.75901,173.02101 c 1.087,-89.37601 -72.306,-164.07501 -162.86901,-164.07301 -90.871,10e-4 -163.76399,72.965 -163.80099,163.76101 -0.036,87.544 70.20799,162.686 162.99399,163.211 90.37101,0.513 163.70001,-73.127 163.67601,-162.899 z"
       id="path14"
       inkscape:connector-curvature="0"
       style="fill:#7dc466;fill-rule:evenodd" />
    <path
       clip-rule="evenodd"
       d="m 480.28076,410.54083 c 5.489,0 11.817,-0.039 18.146,0.014 4.286,0.036 6.891,2.079 8.486,6.234 3.041,7.91901 6.293,15.78501 9.998,23.41001 2.445,5.033 1.349,8.733 -2.093,12.648 -6.937,7.889 -14.257,15.415 -22.002,22.468 -3.599,3.277 -4.452,6.722 -4.612,11.296 -0.202,5.775 1.408,9.734 6.034,13.583 7.782,6.473 15.379,13.268 22.036,21.006 2.781,3.233 3.576,6.268 1.696,10.374 -3.666,8.011 -6.983,16.188 -10.217,24.387 -1.637,4.151 -4.148,6.298 -8.782,6.793 -11.472,1.226 -22.966,0.772 -34.447,1.038 -7.335,0.168 -15.575,8.834 -15.328,16.047 0.364,10.652 0.775,21.308 0.314,31.976 -0.224,5.166 -1.971,8.454 -7.41301,10.318 -8.157,2.794 -16.015,6.525 -23.844,10.19 -4.006,1.875 -7.215,1.436 -10.58,-1.269 -8.853,-7.114 -16.7,-15.283 -24.774,-23.217 -5.256,-5.164 -17.397,-4.779 -22.371,0.715 -7.377,8.149 -15.072,15.986 -23.06,23.545 -3.42,3.237 -6.857,4.091 -11.313,2.214 -8.125,-3.423 -16.344,-6.639 -24.624,-9.666 -3.854,-1.408 -5.915,-3.531 -6.433,-7.803 -1.372,-11.307 -0.585,-22.628 -0.731,-33.939 -0.104,-8.065 -7.696,-15.584 -15.666,-15.51 -11.644,0.109 -23.25,1.785 -34.93799,0.574 -4.024,-0.416 -6.205,-2.143 -7.662,-5.863 -3.154,-8.051 -6.364,-16.114 -10.194,-23.854 -2.432,-4.913 -1.328,-8.5 1.908,-12.228 7.43,-8.561 15.694,-16.302 23.67599,-24.319 4.449,-4.469 4.388,-16.404 -0.186,-20.607 -8.19199,-7.527 -16.53299,-14.889 -24.16399,-23.018 -3.376,-3.597 -4.172,-7.027 -1.987,-11.657 3.404,-7.21 6.647,-14.552 9.19,-22.097 2.183,-6.477 6.464,-8.69401 12.72799,-8.83401 10.157,-0.228 20.31,-0.7 30.467,-0.9 8.831,-0.174 16.338,-8.004 16.109,-16.662 -0.27,-10.156 -0.227,-20.321 -0.304,-30.481 -0.041,-5.291 1.693,-9.019 7.283,-11.017 7.976,-2.851 15.723,-6.386 23.422,-9.945 4.313,-1.994 7.876,-1.61 11.517,1.389 8.626,7.107 16.417,15.096 24.405,22.874 5.213,5.076 16.758,5.058 21.854,-0.233 7.853,-8.151 15.303,-16.686 23.803,-24.22 3.435,-3.043 6.722,-3.688 10.92,-1.958 8.146,3.357 16.336,6.632 24.632,9.595 4.113,1.469 6.14501,3.788 6.62501,8.221 1.246,11.478 0.495,22.967 0.675,34.448 0.105,6.78 8.298,14.993 14.997,14.757 5.325,-0.186 10.646,-0.511 16.804,-0.817 z m -109.39301,40.63501 c -22.321,-0.279 -40.453,17.147 -40.752,39.164 -0.299,22.004 16.816,39.538 38.801,39.752 22.274,0.217 40.948,-17.707 41.272,-39.617 0.321,-21.637 -17.074,-39.022 -39.321,-39.299 z m 76.99401,-3.445 c -0.165,4.715 4.728,11.769 8.881,12.803 3.54,0.882 8.813,-2.926 10.708,-7.946 0.618,-1.64 2.003,-2.007 3.197,-2.854 6.027,-4.277 13.114,-6.042 19.859,-8.626 2.408,-0.923 5.105,-2.386 4.253,-5.24 -0.968,-3.24 -4.124,-2.827 -6.759,-1.945 -4.403,1.475 -8.674,3.388 -13.134,4.644 -3.868,1.088 -8.284,2.773 -11.909,1.081 -8.836,-4.126 -14.769,-1.265 -15.096,8.083 z m -150.15501,79.788 c -0.259,-2.214 -0.77,-4.965 -2.704,-7.215 -6.501,-7.561 -13.329,-6.317 -16.667,3.084 -0.45,1.268 -1.372,1.583 -2.341,2.236 -6.396,4.309 -13.609,6.697 -20.775,9.227 -2.556,0.902 -4.938,2.588 -3.928,5.376 0.994,2.742 3.976,2.548 6.477,1.722 3.625,-1.197 7.139,-2.77 10.812,-3.77 5.826,-1.586 11.763,-4.908 17.558,0.279 0.917,0.82 2.152,0.453 3.333,0.145 6.429,-1.687 7.957,-3.587 8.235,-11.084 z m 55.032,49.709 c -1.526,-4.671 -4.008,-8.586 -8.57,-10.424 -3.517,-1.418 -7.864,-2.656 -10.834,0.332 -3.114,3.135 -6.478,7.059 -2.385,12.093 1.124,1.382 -0.242,2.78 -0.598,4.187 -1.809,7.15 -5.984,13.104 -9.566,19.364 -1.313,2.295 -2.222,5.149 0.272,6.729 2.87,1.817 4.954,-0.701 6.394,-2.971 2.219,-3.498 3.867,-7.393 6.326,-10.696 3.291,-4.422 5.744,-9.685 12.75,-10.222 3.925,-0.3 4.706,-5.016 6.211,-8.392 z m -13.521,-161.20801 c 0.506,-0.071 2.19,-0.131 3.772,-0.562 4.654,-1.267 9.67,-7.169 9.542,-11.041 -0.128,-3.89 -4.194,-7.694 -9.56,-8.687 -1.717,-0.317 -2.322,-1.618 -3.388,-2.617 -5.428,-5.084 -8.227,-11.881 -12.047,-18.014 -1.369,-2.198 -3.341,-4.428 -6.013,-2.822 -2.54,1.527 -1.93,4.324 -0.594,6.667 2.138,3.751 4.843,7.267 6.405,11.237 1.717,4.365 5.39,8.569 3.061,13.81 -2.471,5.563 1.551,12.001 8.822,12.029 z m 63.943,146.84901 c -0.577,0.093 -2.436,0.185 -4.162,0.712 -4.497,1.37 -9.13,7.367 -8.769,11.098 0.39,4.021 4.263,7.586 9.315,8.381 1.666,0.262 2.448,1.377 3.524,2.442 5.013,4.959 8.062,11.196 11.645,17.106 1.498,2.471 3.365,6.08 6.797,3.851 3.216,-2.089 1.131,-5.363 -0.383,-7.983 -2.079,-3.601 -4.961,-6.949 -6.107,-10.818 -1.227,-4.139 -5.219,-7.854 -2.655,-12.908 2.73,-5.38 -1.755,-11.956 -9.205,-11.881 z m 1.144,-149.65401 c 6.342,0.121 10.759,-6.6 7.91,-12.268 -0.919,-1.83 -0.69,-3.218 -0.175,-5.117 1.945,-7.165 6.052,-13.199 9.603,-19.528 1.417,-2.524 2.42,-5.426 -0.425,-7.022 -2.877,-1.615 -4.874,0.916 -6.276,3.316 -2.262,3.87 -3.938,8.22 -6.801,11.563 -3.074,3.591 -4.958,8.906 -11.389,8.841 -3.731,-0.037 -7.422,7.005 -6.162,10.475 2.147,5.914 7.365,9.619 13.715,9.74 z m 40.735,111.56801 c 0.014,7.477 7.34401,13.943 12.11601,10.221 5.11,-3.987 9.715,-1.443 14.392,-0.662 4.026,0.672 7.826,2.688 11.733,4.088 3.016,1.08 6.841,2.606 8.183,-1.314 1.185,-3.461 -2.456,-4.826 -5.393,-5.782 -1.421,-0.462 -2.819,-1.005 -4.194,-1.589 -7.292,-3.102 -16.051,-4.209 -18.591,-13.803 -0.2,-0.757 -1.431,-1.341 -2.289,-1.807 -6.874,-3.734 -15.97201,2.354 -15.95701,10.648 z m -150.101,-70.883 c -0.082,-9.182 -6.486,-12.908 -14.464,-8.377 -1.063,0.604 -2.035,0.791 -3.28,0.683 -6.339,-0.546 -12.309,-2.399 -18.179,-4.722 -1.999,-0.791 -4.044,-1.595 -6.144,-1.959 -1.725,-0.299 -3.932,-0.471 -4.543,1.891 -0.543,2.098 0.071,3.979 2.325,4.886 2.001,0.805 4.045,1.507 6.028,2.352 7.729,3.294 17.15,4.224 20.045,14.344 0.178,0.622 1.216,1.067 1.931,1.453 7.399,4.002 16.359,-1.813 16.281,-10.551 z"
       id="path20"
       inkscape:connector-curvature="0"
       style="fill:#7dc466;fill-rule:evenodd" />
    <path
       clip-rule="evenodd"
       d="m 512.24876,495.89584 c -4.689,0.396 -8.976,-0.689 -12.971,-2.877 -2.55,-1.396 -3.401,-2.985 -0.425,-5.066 6.497,-4.543 20.604,-4.509 27.061,0.015 3.006,2.106 2.131,3.688 -0.381,5.079 -4.146,2.294 -8.641,3.227 -13.284,2.849 z"
       id="path22"
       inkscape:connector-curvature="0"
       style="fill:#7dc466;fill-rule:evenodd" />
    <path
       clip-rule="evenodd"
       d="m 283.81675,403.09183 c 0.327,2.011 -0.585,2.585 -2.53,2.574 -7.599,-0.043 -20.476,-12.81 -20.391,-20.273 0.023,-2.069 1.099,-2.471 2.892,-2.373 7.71,0.422 19.682,12.381 20.029,20.072 z"
       id="path24"
       inkscape:connector-curvature="0"
       style="fill:#7dc466;fill-rule:evenodd" />
    <path
       clip-rule="evenodd"
       d="m 461.58176,405.63083 c -2.381,0.369 -2.811,-0.787 -2.558,-2.913 0.909,-7.644 11.752,-18.582 19.402,-19.555 2.157,-0.274 3.604,-0.215 3.38,2.626 -0.61,7.787 -12.659,19.685 -20.224,19.842 z"
       id="path26"
       inkscape:connector-curvature="0"
       style="fill:#7dc466;fill-rule:evenodd" />
    <path
       clip-rule="evenodd"
       d="m 229.73676,495.90184 c -4.474,0.545 -8.521,-1.013 -12.393,-2.868 -3.042,-1.458 -3.056,-3.434 -0.126,-5.351 6.541,-4.28 20.276,-4.117 26.65,0.208 2.98399,2.024 2.28299,3.655 -0.273,5.094 -4.288,2.412 -8.987,3.146 -13.858,2.917 z"
       id="path28"
       inkscape:connector-curvature="0"
       style="fill:#7dc466;fill-rule:evenodd" />
    <path
       clip-rule="evenodd"
       d="m 461.92176,575.05384 c 7.823,0.535 19.607,12.564 19.939,20.187 0.117,2.697 -1.365,2.475 -3.18,2.312 -7.706,-0.688 -19.107,-12.234 -19.666,-19.817 -0.175,-2.383 0.83,-2.989 2.907,-2.682 z"
       id="path30"
       inkscape:connector-curvature="0"
       style="fill:#7dc466;fill-rule:evenodd" />
    <path
       clip-rule="evenodd"
       d="m 365.50475,352.29383 c 0.005,-4.72 1.022,-9.167 3.447,-13.254 1.421,-2.396 2.785,-2.993 4.739,-0.34 4.505,6.116 4.623,20.688 0.222,27.023 -1.945,2.8 -3.521,2.61 -5.102,-0.128 -2.369,-4.108 -3.273,-8.601 -3.306,-13.301 z"
       id="path32"
       inkscape:connector-curvature="0"
       style="fill:#7dc466;fill-rule:evenodd" />
    <path
       clip-rule="evenodd"
       d="m 263.60575,600.67784 c -2.565,0.269 -2.845,-1.03 -2.555,-3.068 1.125,-7.91 11.654,-18.468 19.494,-19.534 1.941,-0.264 3.282,-0.136 3.328,2.316 0.141,7.514 -12.649,20.282 -20.267,20.286 z"
       id="path34"
       inkscape:connector-curvature="0"
       style="fill:#7dc466;fill-rule:evenodd" />
    <path
       clip-rule="evenodd"
       d="m 377.33275,629.02384 c -0.634,4.063 -0.789,8.549 -3.276,12.497 -1.96,3.111 -3.736,2.917 -5.339,-0.168 -1.833,-3.527 -2.812,-7.047 -2.338,-11.314 0.439,-3.957 -0.802,-8.099 1.043,-12.011 0.916,-1.942 1.567,-4.748 3.726,-4.904 2.663,-0.192 3.342,2.851 4.219,4.885 1.454,3.371 1.749,7.028 1.965,11.015 z"
       id="path36"
       inkscape:connector-curvature="0"
       style="fill:#7dc466;fill-rule:evenodd" />
    <path
       clip-rule="evenodd"
       d="m 343.96475,574.15884 c -0.138,1.259 -0.712,1.972 -1.786,2.18 -1.369,0.266 -2.227,-0.476 -2.452,-1.708 -0.209,-1.141 0.668,-1.78 1.673,-1.966 1.29,-0.238 2.097,0.481 2.565,1.494 z"
       id="path38"
       inkscape:connector-curvature="0"
       style="fill:#7dc466;fill-rule:evenodd" />
    <path
       clip-rule="evenodd"
       d="m 344.07075,407.66283 c -0.351,1.348 -1.254,1.878 -2.574,1.661 -1.169,-0.192 -1.707,-1.062 -1.547,-2.124 0.198,-1.324 1.098,-1.991 2.485,-1.667 1.092,0.256 1.643,0.997 1.636,2.13 z"
       id="path40"
       inkscape:connector-curvature="0"
       style="fill:#7dc466;fill-rule:evenodd" />
    <path
       clip-rule="evenodd"
       d="m 402.99575,571.52384 c -0.241,1.476 -1.087,2.027 -2.45,1.849 -1.195,-0.156 -1.71,-0.958 -1.633,-2.05 0.077,-1.099 0.76,-1.822 1.909,-1.845 1.39,-0.026 2.071,0.775 2.174,2.046 z"
       id="path42"
       inkscape:connector-curvature="0"
       style="fill:#7dc466;fill-rule:evenodd" />
    <path
       clip-rule="evenodd"
       d="m 400.93775,402.45683 c 1.162,0.09 1.871,0.777 1.936,1.871 0.064,1.118 -0.618,1.906 -1.763,1.987 -1.381,0.097 -2.275,-0.655 -2.195,-2.045 0.062,-1.096 0.898,-1.707 2.022,-1.813 z"
       id="path44"
       inkscape:connector-curvature="0"
       style="fill:#7dc466;fill-rule:evenodd" />
    <path
       clip-rule="evenodd"
       d="m 455.23776,523.59284 c -0.187,1.184 -0.823,1.783 -1.962,1.771 -1.423,-0.014 -2.024,-0.834 -1.936,-2.17 0.075,-1.13 0.761,-1.742 1.894,-1.715 1.389,0.032 1.966,0.876 2.004,2.114 z"
       id="path46"
       inkscape:connector-curvature="0"
       style="fill:#7dc466;fill-rule:evenodd" />
    <path
       clip-rule="evenodd"
       d="m 286.71375,457.37484 c -1.325,-0.004 -2.153,-0.613 -2.148,-1.993 0.004,-1.106 0.669,-1.796 1.766,-1.884 1.371,-0.109 2.111,0.616 2.117,1.983 0.005,1.121 -0.578,1.787 -1.735,1.894 z"
       id="path48"
       inkscape:connector-curvature="0"
       style="fill:#7dc466;fill-rule:evenodd" />
    <path
       style="fill:#7dc466;fill-rule:evenodd"
       inkscape:connector-curvature="0"
       clip-rule="evenodd"
       d="m 459.14376,448.71584 c -0.187,1.184 -0.823,1.783 -1.962,1.771 -1.423,-0.014 -2.024,-0.834 -1.936,-2.17 0.075,-1.13 0.761,-1.742 1.894,-1.715 1.389,0.032 1.966,0.876 2.004,2.114 z"
       id="path50" />
    <path
       style="fill:#7dc466;fill-rule:evenodd"
       inkscape:connector-curvature="0"
       clip-rule="evenodd"
       d="m 290.40275,526.53584 c -0.187,1.184 -0.823,1.783 -1.962,1.771 -1.423,-0.014 -2.024,-0.834 -1.936,-2.17 0.075,-1.13 0.761,-1.742 1.894,-1.715 1.388,0.032 1.965,0.876 2.004,2.114 z"
       id="path52" />
  </g>
</svg>
