<?xml version="1.0" encoding="UTF-8"?>
<svg width="45" height="59" version="1.1" viewBox="0 0 45 59" xmlns="http://www.w3.org/2000/svg">
 <path d="m22.5 52c12.426 0 22.5-10.074 22.5-22.5s-10.074-22.5-22.5-22.5-22.5 10.074-22.5 22.5 10.074 22.5 22.5 22.5z" fill="#fff"/>
 <path d="m27.248 20.911c0 3.8447 3.2329 7.0979-0.5812 7.0979s-6.8654-3.1053-6.8654-6.987 3.0876-6.9501 6.8654-6.9501c1.344 0 2.6153 0.4066 3.6688 1.0721-1.671 3.475-3.0876 3.2902-3.0876 5.7671z" fill="#251657"/>
 <path d="m27.902 24.941c2.3874 0 4.3227-1.9697 4.3227-4.3993s-1.9353-4.3993-4.3227-4.3993c-2.3873 0-4.3226 1.9697-4.3226 4.3993s1.9353 4.3993 4.3226 4.3993z" fill="#fff"/>
 <g fill="#251657">
  <path d="m33.423 19.913-1.7073 2.5878h4.5769l-2.8696-2.5878z"/>
  <path d="m30.662 20.098c0.4815 0 0.8718-0.3973 0.8718-0.8873s-0.3903-0.8872-0.8718-0.8872-0.8718 0.3972-0.8718 0.8872 0.3903 0.8873 0.8718 0.8873z"/>
  <path d="m26.412 36.068c3.7314 0 6.7564-3.0785 6.7564-6.8761s-3.025-6.8762-6.7564-6.8762c-3.7315 0-6.7564 3.0786-6.7564 6.8762s3.0249 6.8761 6.7564 6.8761z"/>
  <path d="m33.132 29.784c-2.1432 15.083-21.214 13.53-21.214 13.53l6.7201-15.896"/>
  <path d="m20.746 17.621-13.731 24.066 3.9594-1.0351-6.9744 12.348 5.9209-1.9593 2.2522-7.7264 14.021-7.8744"/>
 </g>
 <path d="m27.575 29.414s-0.3996 6.2847-9.3718 8.9464l-0.2906 0.2218s9.6624-1.5896 11.188-9.7227l-1.5256 0.5545z" fill="#fff"/>
</svg>
